<?xml version="1.0" encoding="UTF-8"?>
<svg width="100%" height="100%" viewBox="0 0 32 32" version="1.1" xmlns="http://www.w3.org/2000/svg" xmlns:xlink="http://www.w3.org/1999/xlink">
    <title>icons/main-nav/koordinointi</title>
    <g id="icons/main-nav/koordinointi" stroke="none" stroke-width="1" fill="none" fill-rule="evenodd">
        <g id="Group-3" transform="translate(4.000000, 3.000000)" fill="#000000">
            <path d="M21.9727296,18.2110715 L12.2124363,22.8774659 C8.82182651,21.7475812 3.68127696,20.0114265 3.18317662,19.7803449 C2.33800759,19.3709948 1.95363712,18.8507178 2.04060702,18.2336496 C2.08865333,17.892819 2.21495227,17.6546695 2.4160575,17.5256801 C2.57154914,17.4257476 2.78968343,17.3752906 3.04917404,17.3752906 C3.25980744,17.3752906 3.49780898,17.4084705 3.75182597,17.475223 C4.40724249,17.6474053 9.89992891,19.4163473 11.9610547,20.0832836 L12.3539397,20.2105061 L21.9727296,15.6715304 L21.9727296,18.2110715 Z M13.827968,2.10211566 L21.218585,4.19932305 L12.2106117,8.45283345 C10.9528932,8.04662468 7.07513033,6.79560376 5.2163261,6.21917604 L13.827968,2.10211566 Z M3.18317662,10.1391201 C2.33800759,9.72977006 1.95363712,9.20949299 2.04060702,8.59242477 C2.08865333,8.25159421 2.21495227,8.01344474 2.4160575,7.88425897 C2.57175187,7.78452284 2.78968343,7.73426211 3.04917404,7.73426211 C3.25980744,7.73426211 3.49780898,7.76744204 3.75162324,7.83419457 C4.40703976,8.0061805 9.89992891,9.77512251 11.9610547,10.4420588 L12.3539397,10.5692813 L21.9727296,6.03030565 L21.9727296,8.5698467 L12.2124363,13.2362411 C8.82182651,12.1063564 3.68127696,10.3702017 3.18317662,10.1391201 L3.18317662,10.1391201 Z M3.18317662,14.9596344 C2.33800759,14.5502843 1.95363712,14.0300072 2.04060702,13.4131353 C2.08865333,13.0721084 2.21495227,12.833959 2.4160575,12.7049695 C2.57175187,12.6050371 2.78968343,12.55458 3.04917404,12.55458 C3.25980744,12.55458 3.49780898,12.5877599 3.75162324,12.6545125 C4.40703976,12.8268911 9.89992891,14.5956367 11.9610547,15.262573 L12.3539397,15.3897955 L21.9727296,10.8510162 L21.9727296,13.3905573 L12.2124363,18.0567554 C8.82182651,16.9268706 3.68127696,15.1907159 3.18317662,14.9596344 L3.18317662,14.9596344 Z M13.6451082,0 L1.58467391,5.81807187 C0.563132352,6.44731262 0.183424606,7.25050261 0.0317847801,8.32718163 C-0.120868681,9.41269555 0.282963583,10.4023999 1.15631167,11.1651458 C0.697743107,11.501657 0.178964611,12.1034114 0.0317847801,13.1476959 C-0.120868681,14.2332098 0.282963583,15.2227178 1.15631167,15.98566 C0.697743107,16.3223676 0.178964611,16.924122 0.0317847801,17.9684064 C-0.176010436,19.4444226 0.642195898,20.744919 2.27658129,21.5363291 C2.97882776,21.8763743 10.4602664,24.3705629 11.9529456,24.8670839 L12.3523179,25 L24,19.4312685 L24,14.6107542 L24,12.5310203 L24,9.79023999 L24,7.71050606 L24,2.8897955 L13.6451082,0 Z" id="Fill-1"></path>
        </g>
    </g>
</svg>