<?xml version="1.0" encoding="UTF-8"?>
<svg width="100%" height="100%" viewBox="0 0 24 24" version="1.1" xmlns="http://www.w3.org/2000/svg" xmlns:xlink="http://www.w3.org/1999/xlink">
    <title>icons/project-status/construction</title>
    <g id="icons/project-status/construction" stroke="none" stroke-width="1" fill="none" fill-rule="evenodd">
        <g id="Group-9" transform="translate(2.000000, 3.000000)" fill="#000000">
            <g id="Group-3" transform="translate(0.000000, 8.986596)">
                <path d="M4.20128333,0.1548225 C1.88078333,0.1548225 -0.000272222222,2.05939125 -0.000272222222,4.4088975 C-0.000272222222,6.75801 1.88078333,8.662185 4.20128333,8.662185 C6.52178333,8.662185 8.40283889,6.75801 8.40283889,4.4088975 C8.40283889,2.05939125 6.52178333,0.1548225 4.20128333,0.1548225" id="Fill-1"></path>
            </g>
            <path d="M16.8830667,12.6109462 C15.5091222,12.6109462 14.3953444,13.7386462 14.3953444,15.129765 C14.3953444,16.5212775 15.5091222,17.6489775 16.8830667,17.6489775 C18.2570111,17.6489775 19.3707889,16.5212775 19.3707889,15.129765 C19.3707889,13.7386462 18.2570111,12.6109462 16.8830667,12.6109462" id="Fill-4"></path>
            <g id="Group-8" transform="translate(1.555556, 0.324096)">
                <path d="M5.52591667,6.09800625 L5.52591667,1.6443 L7.81180556,1.6443 L10.6028611,7.64859375 L7.81880556,7.64859375 C7.15886111,6.93354375 6.36630556,6.42639375 5.52591667,6.09800625 M16.59875,10.9497937 L16.59875,7.64859375 L12.3221389,7.64859375 L9.53069444,1.6443 L10.8618611,1.6443 L10.8618611,0.0693 L0.895805556,0.0693 L0.895805556,1.6443 L3.97036111,1.6443 L3.97036111,5.6865375 C2.45252778,5.45461875 0.969305556,5.6881125 0.02625,6.18345 L0.742583333,7.58165625 C1.93219444,6.95716875 5.04913889,6.8299875 6.77113889,8.81330625 C8.56508333,10.8804937 8.56508333,12.3393375 8.56508333,14.756175 L8.56508333,14.8057875 L10.1206389,14.8057875 L11.5560278,14.8057875 C11.5560278,14.8057875 11.4171944,13.067775 12.5391389,11.8735312 C14.0410278,10.2741187 16.59875,10.9497937 16.59875,10.9497937" id="Fill-6"></path>
            </g>
        </g>
    </g>
</svg>