<?xml version="1.0" encoding="UTF-8"?>
<svg width="100%" height="100%" viewBox="0 0 32 32" version="1.1" xmlns="http://www.w3.org/2000/svg" xmlns:xlink="http://www.w3.org/1999/xlink">
    <title>icons/main-nav/aluetapahtumat</title>
    <g id="icons/main-nav/aluetapahtumat" stroke="none" stroke-width="1" fill="none" fill-rule="evenodd">
        <g id="Group-5" transform="translate(7.000000, 6.000000)" fill="#000000">
            <path d="M15.1406239,12.2645894 C13.980104,12.4255194 13.660334,12.1360544 12.9615141,11.5069644 C12.1749141,10.7984545 11.1181342,9.84854954 8.94415435,9.84854954 C8.77201437,9.84854954 8.59246438,9.85429704 8.40607439,9.86683704 C8.06122442,9.89034954 7.71010444,9.96820203 7.37095447,10.0774045 L7.37095447,2.83607755 C7.71808444,2.69030006 8.3798544,2.53041507 9.49990431,2.65947256 C10.8627742,2.81779005 11.5638742,3.89622997 12.5556741,5.65391984 C13.1404941,6.69003727 13.745834,7.76168469 14.6698039,8.53498463 C15.8485639,9.52094206 17.4867437,9.58259706 18.8194036,9.40128957 C18.4010237,10.577437 17.4223337,11.9526569 15.1406239,12.2645894 L15.1406239,12.2645894 Z M21.9384434,5.67481984 L20.0032936,6.41833729 C19.1619736,6.74228726 17.2348038,7.14356723 16.5912738,6.60591477 C16.0429338,6.14663731 15.5789539,5.32422237 15.0864739,4.45321493 C14.070164,2.65215756 12.8041941,0.41063272 9.85786429,0.0673502451 C6.27427455,-0.345424725 4.92337464,1.26335266 4.78087466,1.44884015 L4.52095467,1.78689762 L4.52095467,14.9946517 L6.82831451,13.3263093 C7.28602447,12.9955668 8.18548441,12.5012818 8.61469438,12.4720219 C9.86641429,12.3852869 10.2836543,12.7578293 10.9648042,13.3712443 C11.8226541,14.1429767 12.9922941,15.1979042 15.5612839,14.8483517 C20.7442935,14.1398417 22.0256534,9.79525454 21.9794834,7.5970972 L21.9384434,5.67481984 Z" id="Fill-1"></path>
            <polygon id="Fill-3" points="0 20.7378668 2.84999979 20.7378668 2.84999979 0.521820712 0 0.521820712"></polygon>
        </g>
    </g>
</svg>