<?xml version="1.0" encoding="UTF-8"?>
<svg width="100%" height="100%" viewBox="0 0 32 32" version="1.1" xmlns="http://www.w3.org/2000/svg" xmlns:xlink="http://www.w3.org/1999/xlink">
    <title>icons/main-nav/kaikkihankkeet</title>
    <g id="icons/main-nav/kaikkihankkeet" stroke="none" stroke-width="1" fill="none" fill-rule="evenodd">
        <g id="Group-4" transform="translate(4.000000, 4.000000)" fill="#000000">
            <path d="M11.4179403,8.97954492e-05 L0.000149659082,6.62908917 L0.000149659082,9.85843284 L0.000149659082,17.2339317 L0.000149659082,21.1720608 L22.8360303,21.1720608 L22.8360303,6.62908917 L11.4179403,8.97954492e-05 Z M2.28364793,8.1735709 L11.4179403,2.93041462 L20.5528314,8.17387022 L20.5528314,18.8882632 L17.3079232,18.8882632 L16.9714896,18.8882632 L16.9714896,11.1844123 L14.7301951,11.1844123 L14.7301951,18.8882632 L13.7017379,18.8882632 L12.5385875,18.8882632 L12.5385875,11.1844123 L10.2972931,11.1844123 L10.2972931,18.8882632 L9.13444207,18.8882632 L8.10568554,18.8882632 L8.10568554,11.1844123 L5.86469045,11.1844123 L5.86469045,18.8882632 L4.79373006,18.8882632 L2.28364793,18.8882632 L2.28364793,8.1735709 Z" id="Fill-1"></path>
            <path d="M9.89375239,7.83477267 C9.89375239,8.67675466 10.5761978,9.35920008 11.4178805,9.35920008 C12.2601618,9.35920008 12.9423079,8.67675466 12.9423079,7.83477267 C12.9423079,6.99279067 12.2601618,6.31034526 11.4178805,6.31034526 C10.5761978,6.31034526 9.89375239,6.99279067 9.89375239,7.83477267" id="Fill-2"></path>
        </g>
    </g>
</svg>