<?xml version="1.0" encoding="UTF-8"?>
<svg width="100%" height="100%" viewBox="0 0 32 32" version="1.1" xmlns="http://www.w3.org/2000/svg" xmlns:xlink="http://www.w3.org/1999/xlink">
    <title>icons/tools/new-item</title>
    <g id="icons/tools/new-item" stroke="none" stroke-width="1" fill="none" fill-rule="evenodd">
        <g id="Group-5" transform="translate(5.000000, 6.000000)" fill="#000000">
            <path d="M5.19999975,14.9176791 L20.1177989,14.9176791 L20.1177989,-0.000119999993 L5.19999975,-0.000119999993 L5.19999975,14.9176791 Z M7.29999962,12.8170792 L18.017199,12.8170792 L18.017199,2.09987987 L7.29999962,2.09987987 L7.29999962,12.8170792 Z" id="Fill-1"></path>
            <polygon id="Fill-2" points="0 5 0 19.9177991 14.9177991 19.9177991 14.9177991 16.8727993 12.8171992 16.8727993 12.8171992 17.8171992 2.09999987 17.8171992 2.09999987 7.09999987 3.3113998 7.09999987 3.3113998 5"></polygon>
            <polygon id="Fill-3" points="9.25359951 8.50847949 16.0629991 8.50847949 16.0629991 6.40847962 9.25359951 6.40847962"></polygon>
            <polygon id="Fill-4" points="11.6091994 10.8634794 13.7091992 10.8634794 13.7091992 4.05407976 11.6091994 4.05407976"></polygon>
        </g>
    </g>
</svg>