<?xml version="1.0" encoding="UTF-8"?>
<svg width="100%" height="100%" viewBox="0 0 32 32" version="1.1" xmlns="http://www.w3.org/2000/svg" xmlns:xlink="http://www.w3.org/1999/xlink">
    <title>icons/main-nav/mittarit</title>
    <g id="icons/main-nav/mittarit" stroke="none" stroke-width="1" fill="none" fill-rule="evenodd">
        <g id="Group-6" transform="translate(5.000000, 6.000000)" fill="#000000">
            <g id="Group-3" transform="translate(0.000000, 0.901440)">
                <path d="M16.730135,11.0197433 C16.133255,14.3691831 13.1992552,16.920143 9.68061542,16.920143 C5.73285566,16.920143 2.52021585,13.7075032 2.52021585,9.75974342 C2.52021585,6.24110363 5.0711757,3.3078238 8.4206155,2.71022384 L8.4206155,11.0197433 L16.730135,11.0197433 Z M10.9406153,0.0793439953 L9.68061542,0.0793439953 C4.34253574,0.0793439953 0.000215999987,4.42166374 0.000215999987,9.75974342 C0.000215999987,15.0978231 4.34253574,19.4401428 9.68061542,19.4401428 C15.0186951,19.4401428 19.3610148,15.0978231 19.3610148,9.75974342 L19.3610148,8.49974349 L10.9406153,8.49974349 L10.9406153,0.0793439953 Z" id="Fill-1"></path>
            </g>
            <path d="M13.5,0 L13.5,6.3 L19.8,6.3 C19.3499618,3.02217001 16.7619751,0.432199915 13.5,0" id="Fill-4"></path>
        </g>
    </g>
</svg>