<?xml version="1.0" encoding="UTF-8"?>
<svg width="100%" height="100%" viewBox="0 0 24 24" version="1.1" xmlns="http://www.w3.org/2000/svg" xmlns:xlink="http://www.w3.org/1999/xlink">
    <title>icons/project-status/project-proposal</title>
    <g id="icons/project-status/project-proposal" stroke="none" stroke-width="1" fill="none" fill-rule="evenodd">
        <path d="M12.1923077,5 C12.317303,5 12.4355279,5.04107329 12.5469826,5.11877042 C14.687199,5.8055967 17,9.28405303 17,13.2727273 C17,17.386778 14.5395167,18.7868412 12.345442,18.9768389 C12.2957783,18.9928014 12.2446363,19 12.1923077,19 C12.128697,19 12.0646479,18.999033 12.0002329,18.9970589 C11.9360124,18.999023 11.8716309,19 11.8076923,19 C11.7553637,19 11.7042217,18.9928014 11.6542662,18.9787305 C9.46048326,18.7868412 7,17.386778 7,13.2727273 C7,9.28405303 9.31280098,5.8055967 11.4532983,5.1216464 C11.5644721,5.04107329 11.682697,5 11.8076923,5 C11.8715753,5 11.9359005,5.00292598 12.0005943,5.00871045 L12.047357,5.00494282 Z" id="Combined-Shape" fill="#000000"></path>
    </g>
</svg>