<?xml version="1.0" encoding="UTF-8"?>
<svg width="100%" height="100%" viewBox="0 0 32 32" version="1.1" xmlns="http://www.w3.org/2000/svg" xmlns:xlink="http://www.w3.org/1999/xlink">
    <title>icons/main-nav/ohjelmointi</title>
    <defs>
        <polygon id="path-1" points="0 0 23.4162225 0 23.4162225 24.4137987 0 24.4137987"></polygon>
    </defs>
    <g id="icons/main-nav/ohjelmointi" stroke="none" stroke-width="1" fill="none" fill-rule="evenodd">
        <g id="Group-3" transform="translate(4.000000, 4.000000)">
            <mask id="mask-2" fill="white">
                <use xlink:href="#path-1"></use>
            </mask>
            <g id="Clip-2"></g>
            <path d="M16.0215488,5.31093521 C15.94123,5.31093521 15.8650971,5.31564446 15.7871328,5.31799909 L15.7871328,-5.23250003e-05 L12.3250492,-5.23250003e-05 C9.73653142,-5.23250003e-05 7.63018853,2.10602894 7.63018853,4.69480833 L7.63018853,5.31826071 C7.55170103,5.31590609 7.47530653,5.31093521 7.3944644,5.31093521 L-0.000104650001,5.31093521 L-0.000104650001,22.5651041 L7.3944644,22.5651041 C9.34906479,22.5651041 10.3741115,23.1856786 11.1443355,23.8721826 L11.6199698,24.3480785 L11.6309581,24.3368286 C11.6568589,24.3624678 11.6827598,24.3881071 11.7081374,24.414008 C12.5696686,23.5524768 13.5567797,22.5651041 16.0215488,22.5651041 L23.4163795,22.5651041 L23.4163795,5.31093521 L16.0215488,5.31093521 Z M9.62481754,4.69480833 C9.62481754,3.20590045 10.8361413,1.99457669 12.3250492,1.99457669 L13.7925038,1.99457669 L13.7925038,13.5570936 L12.3242643,13.5570936 C11.3235487,13.5570936 10.3911172,13.8809854 9.62481754,14.4311828 L9.62481754,4.69480833 Z M9.62481754,18.2613728 C9.64129991,17.3836209 10.0672254,16.60424 10.7108229,16.1087223 L10.7108229,20.6175676 L10.4144018,20.3214081 C9.95995917,19.8667038 9.64862541,19.0807823 9.62481754,18.3419533 L9.62481754,18.2613728 Z M1.99452436,20.5704751 L1.99452436,7.30556422 L7.3944644,7.30556422 C7.47582978,7.30556422 7.5524859,7.30975022 7.6299269,7.31288972 L7.6288804,18.2524775 C7.6288804,19.0642999 7.8350409,19.8902501 8.1971299,20.6021317 C7.9417839,20.5819866 7.67571128,20.5704751 7.3944644,20.5704751 L1.99452436,20.5704751 Z M21.4217505,20.5704751 L16.0215488,20.5704751 C14.6184539,20.5704751 13.5476228,20.8368093 12.7054519,21.2172121 L12.7054519,15.5519843 L15.7871328,15.5519843 L15.7871328,7.31236647 C15.8643122,7.30922697 15.9404451,7.30556422 16.0215488,7.30556422 L21.4217505,7.30556422 L21.4217505,20.5704751 Z" id="Fill-1" fill="#000000"></path>
        </g>
    </g>
</svg>