<?xml version="1.0" encoding="UTF-8"?>
<svg width="100%" height="100%" viewBox="0 0 32 32" version="1.1" xmlns="http://www.w3.org/2000/svg" xmlns:xlink="http://www.w3.org/1999/xlink">
    <title>icons/main-nav/versionhistory</title>
    <g id="icons/main-nav/versionhistory" stroke="none" stroke-width="1" fill="none" fill-rule="evenodd">
        <g id="Group-3" transform="translate(8.000000, 5.000000)" fill="#000000">
            <path d="M13.9986755,11.9706583 C13.9986755,15.0050532 11.529863,17.4738657 8.49606654,17.4738657 C5.46107306,17.4738657 2.99226058,15.0050532 2.99226058,11.9706583 C2.99226058,9.15950378 5.11274606,6.8373238 7.83831504,6.5105428 L6.11942305,8.22943479 L7.83233004,9.94234177 L12.801077,4.97419331 L12.798683,4.97239781 L12.801077,4.97000381 L7.83053454,5.98499995e-05 L6.11822605,1.71236834 L7.91073354,3.50427732 C3.49919007,3.80771682 -0.000239399998,7.48370379 -0.000239399998,11.9706583 C-0.000239399998,16.6551177 3.81160707,20.4663657 8.49606654,20.4663657 C13.180526,20.4663657 16.9911755,16.6551177 16.9911755,11.9706583 L13.9986755,11.9706583 Z" id="Fill-1"></path>
        </g>
    </g>
</svg>